<?xml version="1.0" encoding="utf-8" standalone="no"?>
<!DOCTYPE svg PUBLIC "-//W3C//DTD SVG 1.1//EN"
  "http://www.w3.org/Graphics/SVG/1.1/DTD/svg11.dtd">
<!-- Created with matplotlib (https://matplotlib.org/) -->
<svg height="133.519375pt" version="1.1" viewBox="0 0 223.38 133.519375" width="223.38pt" xmlns="http://www.w3.org/2000/svg" xmlns:xlink="http://www.w3.org/1999/xlink">
 <defs>
  <style type="text/css">
*{stroke-linecap:butt;stroke-linejoin:round;white-space:pre;}
  </style>
 </defs>
 <g id="figure_1">
  <g id="patch_1">
   <path d="M 0 133.519375 
L 223.38 133.519375 
L 223.38 0 
L 0 0 
z
" style="fill:none;"/>
  </g>
  <g id="axes_1">
   <g id="patch_2">
    <path clip-path="url(#pff46692a97)" d="M 107.64 92.659375 
C 111.93629 92.659375 116.057194 91.04727 119.09513 88.178109 
C 122.133066 85.308947 123.84 81.416982 123.84 77.359375 
C 123.84 73.301768 122.133066 69.409803 119.09513 66.540641 
C 116.057194 63.67148 111.93629 62.059375 107.64 62.059375 
C 103.34371 62.059375 99.222806 63.67148 96.18487 66.540641 
C 93.146934 69.409803 91.44 73.301768 91.44 77.359375 
C 91.44 81.416982 93.146934 85.308947 96.18487 88.178109 
C 99.222806 91.04727 103.34371 92.659375 107.64 92.659375 
z
" style="fill:none;stroke:#000000;stroke-linejoin:miter;stroke-width:2;"/>
   </g>
   <g id="line2d_1">
    <path clip-path="url(#pff46692a97)" d="M 10.44 31.459375 
L 59.04 31.459375 
L 107.64 31.459375 
" style="fill:none;stroke:#000000;stroke-linecap:round;stroke-width:2;"/>
   </g>
   <g id="line2d_2">
    <path clip-path="url(#pff46692a97)" d="M 107.64 31.459375 
L 140.04 31.459375 
L 142.74 23.809375 
L 148.14 39.109375 
L 153.54 23.809375 
L 158.94 39.109375 
L 164.34 23.809375 
L 169.74 39.109375 
L 172.44 31.459375 
L 204.84 31.459375 
" style="fill:none;stroke:#000000;stroke-linecap:round;stroke-width:2;"/>
   </g>
   <g id="line2d_3">
    <path clip-path="url(#pff46692a97)" d="M 204.84 31.459375 
L 204.84 74.605375 
M 212.94 74.605375 
L 196.74 74.605375 
M 212.94 80.113375 
L 196.74 80.113375 
M 204.84 80.113375 
L 204.84 123.259375 
" style="fill:none;stroke:#000000;stroke-linecap:round;stroke-width:2;"/>
   </g>
   <g id="line2d_4">
    <path clip-path="url(#pff46692a97)" d="M 204.84 123.259375 
L 156.24 123.259375 
L 107.64 123.259375 
" style="fill:none;stroke:#000000;stroke-linecap:round;stroke-width:2;"/>
   </g>
   <g id="line2d_5">
    <path clip-path="url(#pff46692a97)" d="M 107.64 123.259375 
L 107.64 92.659375 
L 107.64 92.659375 
M 107.64 62.059375 
L 107.64 62.059375 
L 107.64 31.459375 
" style="fill:none;stroke:#000000;stroke-linecap:round;stroke-width:2;"/>
   </g>
   <g id="line2d_6">
    <path clip-path="url(#pff46692a97)" d="M 115.74 77.359375 
L 115.065 75.775402 
L 114.39 74.299375 
L 113.715 73.031881 
L 113.04 72.0593 
L 112.365 71.447909 
L 111.69 71.239375 
L 111.015 71.447909 
L 110.34 72.0593 
L 109.665 73.031881 
L 108.99 74.299375 
L 108.315 75.775402 
L 107.64 77.359375 
L 106.965 78.943348 
L 106.29 80.419375 
L 105.615 81.686869 
L 104.94 82.65945 
L 104.265 83.270841 
L 103.59 83.479375 
L 102.915 83.270841 
L 102.24 82.65945 
L 101.565 81.686869 
L 100.89 80.419375 
L 100.215 78.943348 
L 99.54 77.359375 
" style="fill:none;stroke:#000000;stroke-linecap:round;stroke-width:2;"/>
   </g>
   <g id="text_1">
    <!-- 1$\Omega$ -->
    <defs>
     <path d="M 12.40625 8.296875 
L 28.515625 8.296875 
L 28.515625 63.921875 
L 10.984375 60.40625 
L 10.984375 69.390625 
L 28.421875 72.90625 
L 38.28125 72.90625 
L 38.28125 8.296875 
L 54.390625 8.296875 
L 54.390625 0 
L 12.40625 0 
z
" id="DejaVuSans-49"/>
     <path d="M 72.609375 8.6875 
L 72.609375 0 
L 43.3125 0 
L 43.3125 8.6875 
Q 51.953125 13.421875 56.78125 21.53125 
Q 61.625 29.640625 61.625 39.5 
Q 61.625 51.21875 55.171875 58.296875 
Q 48.734375 65.375 38.1875 65.375 
Q 27.640625 65.375 21.171875 58.265625 
Q 14.703125 51.171875 14.703125 39.5 
Q 14.703125 29.640625 19.53125 21.53125 
Q 24.421875 13.421875 33.109375 8.6875 
L 33.109375 0 
L 3.8125 0 
L 3.8125 8.6875 
L 19.390625 8.6875 
Q 11.671875 15.484375 8.109375 22.75 
Q 4.59375 30.03125 4.59375 39.015625 
Q 4.59375 54.546875 13.96875 64.15625 
Q 23.296875 73.78125 38.1875 73.78125 
Q 52.984375 73.78125 62.40625 64.15625 
Q 71.78125 54.59375 71.78125 39.5 
Q 71.78125 30.03125 68.3125 22.796875 
Q 64.84375 15.578125 56.984375 8.6875 
z
" id="DejaVuSans-937"/>
    </defs>
    <g transform="translate(146.37 17.837812)scale(0.14 -0.14)">
     <use transform="translate(0 0.21875)" xlink:href="#DejaVuSans-49"/>
     <use transform="translate(63.623047 0.21875)" xlink:href="#DejaVuSans-937"/>
    </g>
   </g>
   <g id="text_2">
    <!-- 10$\mu$F -->
    <defs>
     <path d="M 31.78125 66.40625 
Q 24.171875 66.40625 20.328125 58.90625 
Q 16.5 51.421875 16.5 36.375 
Q 16.5 21.390625 20.328125 13.890625 
Q 24.171875 6.390625 31.78125 6.390625 
Q 39.453125 6.390625 43.28125 13.890625 
Q 47.125 21.390625 47.125 36.375 
Q 47.125 51.421875 43.28125 58.90625 
Q 39.453125 66.40625 31.78125 66.40625 
z
M 31.78125 74.21875 
Q 44.046875 74.21875 50.515625 64.515625 
Q 56.984375 54.828125 56.984375 36.375 
Q 56.984375 17.96875 50.515625 8.265625 
Q 44.046875 -1.421875 31.78125 -1.421875 
Q 19.53125 -1.421875 13.0625 8.265625 
Q 6.59375 17.96875 6.59375 36.375 
Q 6.59375 54.828125 13.0625 64.515625 
Q 19.53125 74.21875 31.78125 74.21875 
z
" id="DejaVuSans-48"/>
     <path d="M -1.3125 -20.796875 
L 13.375 54.6875 
L 22.40625 54.6875 
L 15.765625 20.65625 
Q 15.578125 19.625 15.421875 18.359375 
Q 15.28125 17.09375 15.28125 15.828125 
Q 15.28125 11.28125 18.140625 8.828125 
Q 21 6.390625 26.3125 6.390625 
Q 33.546875 6.390625 37.984375 10.484375 
Q 42.4375 14.59375 44 22.796875 
L 50.203125 54.6875 
L 59.1875 54.6875 
L 51.03125 12.640625 
Q 50.828125 11.71875 50.75 11.03125 
Q 50.6875 10.359375 50.6875 9.8125 
Q 50.6875 8.296875 51.296875 7.59375 
Q 51.90625 6.890625 53.21875 6.890625 
Q 53.71875 6.890625 54.5625 7.125 
Q 55.421875 7.375 56.984375 8.015625 
L 55.609375 0.78125 
Q 53.46875 -0.296875 51.515625 -0.859375 
Q 49.5625 -1.421875 47.703125 -1.421875 
Q 44.484375 -1.421875 42.65625 0.625 
Q 40.828125 2.6875 40.828125 6.296875 
Q 38.09375 2.390625 34.296875 0.484375 
Q 30.515625 -1.421875 25.390625 -1.421875 
Q 20.84375 -1.421875 17.453125 0.671875 
Q 14.0625 2.78125 12.984375 6.203125 
L 7.71875 -20.796875 
z
" id="DejaVuSans-Oblique-956"/>
     <path d="M 9.8125 72.90625 
L 51.703125 72.90625 
L 51.703125 64.59375 
L 19.671875 64.59375 
L 19.671875 43.109375 
L 48.578125 43.109375 
L 48.578125 34.8125 
L 19.671875 34.8125 
L 19.671875 0 
L 9.8125 0 
z
" id="DejaVuSans-70"/>
    </defs>
    <g transform="translate(158.64 81.194063)scale(0.14 -0.14)">
     <use transform="translate(0 0.78125)" xlink:href="#DejaVuSans-49"/>
     <use transform="translate(63.623047 0.78125)" xlink:href="#DejaVuSans-48"/>
     <use transform="translate(127.246094 0.78125)" xlink:href="#DejaVuSans-Oblique-956"/>
     <use transform="translate(190.869141 0.78125)" xlink:href="#DejaVuSans-70"/>
    </g>
   </g>
   <g id="text_3">
    <!-- 10V -->
    <defs>
     <path d="M 28.609375 0 
L 0.78125 72.90625 
L 11.078125 72.90625 
L 34.1875 11.53125 
L 57.328125 72.90625 
L 67.578125 72.90625 
L 39.796875 0 
z
" id="DejaVuSans-86"/>
    </defs>
    <g transform="translate(60.808125 81.2225)scale(0.14 -0.14)">
     <use xlink:href="#DejaVuSans-49"/>
     <use x="63.623047" xlink:href="#DejaVuSans-48"/>
     <use x="127.246094" xlink:href="#DejaVuSans-86"/>
    </g>
   </g>
  </g>
 </g>
 <defs>
  <clipPath id="pff46692a97">
   <rect height="105.57" width="208.98" x="7.2" y="20.749375"/>
  </clipPath>
 </defs>
</svg>
